<svg width="82" height="85" viewBox="0 0 82 85" fill="none" xmlns="http://www.w3.org/2000/svg">
<path d="M18.3335 48.4743C19.3224 46.6503 21.9256 46.6503 22.9145 48.4743L39.3921 78.8675C40.3405 80.6168 39.082 82.7495 37.1015 82.7495H4.1464C2.16595 82.7495 0.907553 80.6168 1.8559 78.8675L18.3335 48.4743Z" fill="#F6F6F6"/>
<path d="M3.2298 7.49975C3.2298 4.60025 5.56608 2.24976 8.448 2.24976H32.7995C35.6814 2.24976 38.0177 4.60025 38.0177 7.49975V31.9998C38.0177 34.8993 35.6814 37.2498 32.7995 37.2498H8.44798C5.56608 37.2498 3.2298 34.8993 3.2298 31.9998V7.49975Z" fill="#21E786"/>
<path d="M46.7147 52.9998C46.7147 50.1003 49.0509 47.7498 51.9328 47.7498H76.2844C79.1663 47.7498 81.5025 50.1003 81.5025 52.9998V77.4998C81.5025 80.3993 79.1663 82.7498 76.2844 82.7498H51.9328C49.0509 82.7498 46.7147 80.3993 46.7147 77.4998V52.9998Z" fill="#21E786"/>
<path d="M81.5025 19.7498C81.5025 29.4148 73.715 37.2498 64.1086 37.2498C54.5022 37.2498 46.7147 29.4148 46.7147 19.7498C46.7147 10.0848 54.5022 2.24976 64.1086 2.24976C73.715 2.24976 81.5025 10.0848 81.5025 19.7498Z" fill="#F6F6F6"/>
</svg>
