<svg width="445" height="328" viewBox="0 0 445 328" fill="none" xmlns="http://www.w3.org/2000/svg">
<path fill-rule="evenodd" clip-rule="evenodd" d="M28.9971 -223.245L44.1522 -231.71L149.901 -167.968L166.618 -157.804L173.965 -153.325L182.901 -147.867C192.155 -142.192 201.946 -136.08 211.49 -129.523C212.832 -128.603 214.17 -127.671 215.503 -126.73C220.958 -122.843 226.199 -118.733 231.193 -114.429C236.18 -110.131 240.923 -105.635 245.387 -100.972C254.245 -91.6866 262.803 -81.0952 271.548 -68.5906C276.911 -60.9227 282.237 -52.9397 287.444 -45.0641L291.325 -39.1841C292.801 -36.9457 294.277 -34.7064 295.756 -32.4709L297.181 -30.3301C305.695 -17.6092 313.635 -7.11285 321.408 1.70215C330.576 12.0993 340.541 20.6547 351.044 27.1519L352.15 27.8275C363.062 34.4037 375.664 39.4302 389.609 42.7673C401.83 45.6933 415.25 47.8027 431.842 49.4048L446.333 50.7924C455.934 51.7188 465.689 52.7052 475.181 53.8917C490.353 55.787 503.764 58.4469 516.18 62.0204C528.632 65.6211 541.074 70.5688 553.154 76.7217C563.743 82.1561 574.102 88.1009 583.845 93.8468L587.531 96.0266C597.731 102.088 607.906 108.168 618.065 114.24L724.289 178.253L723.986 195.674L613.451 129.046C608.606 126.147 603.756 123.249 598.901 120.351L587.486 113.545L579.772 108.953L577.195 107.429C565.714 100.659 555.715 95.0169 545.175 89.8672C532.922 83.9189 520.103 79.3427 507.077 76.2654C494.489 73.2932 480.634 71.2002 464.717 69.8676C457.505 69.2633 450.147 68.7478 442.891 68.2628L429.137 67.3522L420.502 66.7651C418.465 66.6217 416.467 66.4655 414.505 66.299C400.751 65.1279 388.785 63.3804 378.073 60.9843C364.585 57.9677 352.41 53.2913 341.87 47.0789L340.834 46.4601C330.179 40.0076 320.119 31.2947 310.931 20.5617C302.768 11.0246 294.59 -0.342377 285.929 -14.1892C284.023 -17.2365 282.124 -20.2957 280.228 -23.3579L273.724 -33.8728C270.036 -39.8258 266.278 -45.8502 262.519 -51.7107C253.918 -65.1179 245.645 -76.3626 237.227 -86.0877C228.494 -96.1745 218.589 -105.361 207.786 -113.393C197.097 -121.282 185.821 -128.385 175.226 -134.887C167.139 -139.84 159.054 -144.763 150.983 -149.671L142.17 -155.028L28.9971 -223.245ZM61.317 -241.308L158.606 -182.665C166.844 -177.662 175.1 -172.649 183.362 -167.611L191.627 -162.564C201.529 -156.505 213.165 -149.284 224.389 -141.671C235.516 -134.083 245.831 -125.831 255.048 -117.142C264.414 -108.282 273.646 -98.1051 282.487 -86.8931C289.867 -77.5327 297.138 -67.6191 304.218 -57.8689L307.888 -52.8072C317.582 -39.4331 325.994 -29.0176 334.361 -20.0287C343.695 -10.0014 353.721 -1.64862 364.187 4.81943L365.388 5.5528C376.294 12.1209 388.784 17.3208 402.51 21.007C414.335 24.182 427.485 26.734 443.896 29.0407L449.857 29.8802C461.828 31.5731 474.056 33.3664 486.001 35.5691C500.088 38.1682 513.455 41.6241 525.726 45.8401C537.941 50.0591 549.807 55.2723 562 61.7806C573.998 68.2061 585.524 74.9565 596.195 81.2931L605.19 86.6542C609.984 89.5115 614.776 92.3701 619.56 95.2307L628.736 100.719L663.059 121.402L724.614 158.507L724.311 175.926L633.484 121.176L632.481 120.574C629.06 118.511 625.647 116.454 622.222 114.388C614.748 109.919 607.272 105.447 599.784 100.984L588.475 94.2555L584.841 92.1064C575.073 86.3463 564.686 80.3845 554.048 74.925C541.859 68.7162 529.301 63.7238 516.721 60.0839C504.206 56.4819 490.697 53.8022 475.42 51.8937C464.719 50.5559 453.698 49.4734 442.94 48.4445L432.026 47.4016C415.529 45.8078 402.196 43.7133 390.063 40.8082C376.7 37.6053 364.595 32.84 354.066 26.6348L352.98 25.9856C342.313 19.5258 332.194 10.9084 322.906 0.371735C314.743 -8.8873 306.408 -19.9935 297.422 -33.5814L295.206 -36.9359L292.992 -40.2927C286.557 -50.0489 279.904 -60.1376 273.185 -69.7443C264.38 -82.3293 255.76 -92.9977 246.83 -102.361C242.57 -106.812 238.047 -111.106 233.307 -115.234C228.014 -119.846 222.452 -124.242 216.645 -128.378C215.29 -129.334 213.928 -130.283 212.562 -131.221C202.943 -137.828 193.168 -143.927 183.944 -149.58L182.613 -150.392C177.619 -153.447 172.626 -156.494 167.637 -159.531L150.878 -169.722L46.1615 -232.841L61.317 -241.308ZM78.4943 -250.904L167.322 -197.363C175.565 -192.361 183.824 -187.349 192.09 -182.315L203.407 -175.409C212.046 -170.116 222.707 -163.504 233.272 -156.601C239.672 -152.391 245.656 -148.171 251.335 -143.872L253.598 -142.151L254.147 -141.72C257.755 -138.921 261.247 -136.084 264.634 -133.188C274.373 -124.85 284.053 -115.413 293.402 -105.137C295.584 -102.734 297.743 -100.31 299.906 -97.8387L301.53 -95.9752C306.406 -90.3549 311.343 -84.4581 316.679 -77.9838L321.054 -72.6589L321.803 -71.7496C331.544 -59.9386 339.87 -50.6678 347.88 -42.7028C349.438 -41.1515 351.015 -39.6519 352.603 -38.1844L353.795 -37.0895C354.345 -36.5891 354.889 -36.0751 355.442 -35.5836L356.35 -34.7978C363.361 -28.6413 370.602 -23.2338 377.99 -18.6708L379.308 -17.8664C390.194 -11.3088 402.526 -5.87076 415.963 -1.70184C418.078 -1.04489 420.247 -0.401703 422.481 0.233948L424.258 0.734161C433.211 3.22574 443.21 5.58041 455.012 7.98578L456.199 8.2265C469.267 10.8677 483.231 13.7939 496.781 17.2848C498.467 17.7221 500.145 18.1705 501.812 18.6285C513.486 21.8407 524.698 25.5811 535.209 29.7708C546.895 34.4554 558.55 40.0415 570.841 46.8472C577.263 50.4259 583.704 54.1187 590.052 57.7887L598.882 62.9061L604.992 66.4518L724.972 138.774L724.671 156.192L630.971 99.7095L620.58 93.5042C615.793 90.6415 610.998 87.7814 606.199 84.9209C603.201 83.1337 600.217 81.3424 597.213 79.5574L593.619 77.4269C583.953 71.7101 573.639 65.7298 562.942 59.9998C550.656 53.4432 538.696 48.187 526.378 43.9352C514.013 39.6857 500.551 36.2053 486.366 33.5882C473.388 31.1944 460.095 29.2863 447.158 27.465L444.179 27.0461C427.848 24.7516 414.774 22.2126 403.031 19.059C389.484 15.4228 377.166 10.2954 366.419 3.82269L366.166 3.66953C355.517 -2.77936 345.31 -11.2149 335.822 -21.4076C327.918 -29.9001 319.965 -39.684 310.908 -52.0708L309.437 -54.0918L305.897 -58.9729C298.786 -68.7691 291.481 -78.7302 284.055 -88.1482C275.145 -99.444 265.847 -109.693 256.418 -118.613C247.123 -127.375 236.725 -135.695 225.513 -143.342C214.359 -150.911 203.135 -157.882 192.668 -164.287C184.594 -169.226 176.522 -174.136 168.464 -179.033L159.604 -184.415L63.3401 -242.438L78.4943 -250.904ZM80.5111 -252.031L95.6667 -260.497L209.142 -192.094L213.903 -189.128L224.482 -182.547C230.332 -178.905 236.269 -175.194 242.116 -171.483C254.094 -163.825 264.556 -156.484 274.096 -149.044C284.084 -141.252 294.174 -132.488 304.086 -122.999L305.761 -121.385C314.95 -112.496 323.71 -103.42 330.706 -96.06L335.096 -91.4398C342.481 -83.7008 351.734 -74.2579 361.456 -65.4498C363.348 -63.7346 365.258 -62.0819 367.177 -60.4583C375.259 -53.6029 383.53 -47.5446 391.859 -42.4131L393.359 -41.4956C404.18 -34.9729 416.325 -29.2515 429.458 -24.49C441.833 -20.0013 454.515 -16.2359 464.811 -13.3273L471.472 -11.46C485.847 -7.41772 497.01 -4.03491 507.331 -0.600159C520.347 3.7413 532.882 8.61877 544.583 13.8967C555.676 18.9301 567.151 24.8405 579.664 31.966C585.563 35.3477 591.513 38.8076 597.364 42.2225L610.204 49.7217C611.374 50.4042 612.544 51.0858 613.712 51.7657L725.309 119.035L725.008 136.45L606.007 64.7177L599.619 61.0156L593.523 57.4775C586.367 53.3309 579.074 49.1367 571.803 45.0878C559.417 38.2282 547.687 32.6074 535.943 27.9017C534.432 27.2996 532.907 26.7062 531.368 26.1236C520.593 22.0375 509.149 18.4161 497.276 15.3388C488.212 13.0034 478.976 10.9254 469.943 9.01337C466.931 8.37564 463.94 7.75519 460.987 7.15106L455.355 6.0047L452.955 5.5101C441.477 3.12296 431.747 0.782471 423.036 -1.69562C420.814 -2.32767 418.656 -2.96945 416.55 -3.62399C403.253 -7.75128 391.067 -13.1234 380.331 -19.5908L380.072 -19.7476C369.433 -26.1908 359.073 -34.3934 349.28 -44.1323L348.111 -45.3022C340.304 -53.1658 332.129 -62.3399 322.556 -73.9806L319.948 -77.159C310.907 -88.1604 303.068 -97.4754 294.871 -106.495C285.47 -116.829 275.731 -126.325 265.924 -134.719C264.25 -136.151 262.55 -137.566 260.825 -138.971L258.6 -140.77C256.941 -142.094 255.246 -143.407 253.534 -144.714C247.523 -149.304 241.177 -153.8 234.359 -158.285L232.476 -159.512C221.184 -166.846 210 -173.736 201.392 -178.991C190.364 -185.726 179.342 -192.414 168.319 -199.103L80.5111 -252.031ZM112.839 -270.087L217.86 -206.782L224.77 -202.504L231.692 -198.23C238.103 -194.273 244.521 -190.31 250.929 -186.315L253.146 -184.922C264.843 -177.549 274.513 -171.082 283.42 -164.679C293.753 -157.244 304.195 -149.059 314.456 -140.348L316.202 -138.861C326.076 -130.421 335.565 -121.84 343.054 -114.992L346.925 -111.451C354.654 -104.401 364.352 -95.7301 374.544 -87.3827C384.845 -78.9482 394.894 -71.7473 405.207 -65.4159L406.721 -64.4947L406.943 -64.3603C417.864 -57.7784 429.481 -51.9258 442.456 -46.4677L444.576 -45.5814C456.242 -40.7374 467.978 -36.4075 477.464 -33.0016L484.272 -30.5607C494.022 -27.0492 505.89 -22.6795 517.58 -17.9848C530.155 -12.9315 542.348 -7.46649 553.815 -1.74005L555.675 -0.80481C565.627 4.22617 576.103 9.96011 588.449 17.1326C592.827 19.6863 597.196 22.2502 601.562 24.8171L608.107 28.6692C612.882 31.48 617.654 34.2901 622.42 37.0813L725.655 99.3103L725.354 116.721L614.726 50.035L609.6 47.0452L595.615 38.8773C590.652 35.9841 585.635 33.0732 580.651 30.2151C568.084 23.0593 556.555 17.122 545.405 12.0621C533.642 6.75641 521.044 1.85373 507.962 -2.50912L505.795 -3.22516C493.517 -7.25415 481.283 -10.7927 471.43 -13.5608L465.251 -15.2943C454.979 -18.1993 442.365 -21.9487 430.138 -26.3812C417.58 -30.9356 405.933 -36.3744 395.5 -42.5565L394.022 -43.4413C383.442 -49.8482 372.938 -57.7545 362.795 -66.9443C353.074 -75.758 343.868 -85.1538 336.527 -92.8465L330.944 -98.7207C323.718 -106.304 314.784 -115.517 305.465 -124.456C295.5 -133.997 285.357 -142.804 275.323 -150.635C265.762 -158.092 255.252 -165.468 243.187 -173.183C236.361 -177.515 229.419 -181.843 222.637 -186.061L219.741 -187.862C216.557 -189.842 213.375 -191.821 210.184 -193.811L97.6883 -261.625L112.839 -270.087ZM130.008 -279.681L259.865 -201.408C262.543 -199.655 265.229 -197.913 267.919 -196.174L271.956 -193.566C278.743 -189.185 285.761 -184.655 292.594 -180.068C302.434 -173.462 312.484 -166.274 322.496 -158.68L324.498 -157.156C334.032 -149.87 343.434 -142.346 351.22 -136.04L359.035 -129.693C366.996 -123.243 376.78 -115.437 386.805 -107.928C397.978 -99.5512 408.741 -92.257 419.63 -85.7037C430.549 -79.122 442.002 -73.0194 454.64 -67.0478L456.703 -66.0772C467.019 -61.2449 477.364 -56.7266 486.068 -53.0015L495.984 -48.7769C508.4 -43.4713 518.283 -39.1017 527.529 -34.8351C539.834 -29.1347 551.744 -23.1844 562.928 -17.1474C568.36 -14.214 573.816 -11.1733 579.178 -8.16309L590.952 -1.54269C593.1 -0.338348 595.246 0.860229 597.387 2.04816L725.986 79.5666L725.684 96.9778L623.443 35.3474L616.414 31.2215L609.387 27.0874C604.964 24.4835 600.539 21.8784 596.107 19.2807L589.452 15.3899L587.15 14.0569C574.987 7.03641 564.624 1.41705 554.707 -3.54141C543.235 -9.27319 530.995 -14.7604 518.324 -19.8527L516.227 -20.6906C505.048 -25.1366 493.967 -29.2101 484.811 -32.5054L475.512 -35.8426C465.964 -39.2939 454.503 -43.5776 443.229 -48.3225C431.054 -53.4443 419.634 -59.1575 409.263 -65.3142L407.531 -66.3522C397.273 -72.5645 387.293 -79.6276 377.084 -87.9038L375.806 -88.9447C367.752 -95.5394 359.329 -102.87 348.834 -112.427L341.525 -119.102C334.014 -125.94 324.943 -134.078 315.746 -141.885C305.409 -150.657 294.926 -158.876 284.583 -166.316L282.9 -167.521C273.87 -173.952 263.988 -180.505 251.984 -188.025C247.709 -190.69 243.43 -193.34 239.153 -195.983L232.738 -199.945C228.123 -202.793 223.512 -205.64 218.9 -208.501L114.857 -271.217L130.008 -279.681ZM723.624 215.385L604.832 143.779L596.829 139.002C591.107 135.584 585.383 132.166 579.653 128.752L571.051 123.636L568.837 122.326C559.131 116.597 547.995 110.217 536.307 104.767C524.101 99.1342 511.05 94.9378 497.516 92.2918C484.845 89.8142 470.748 88.1371 454.418 87.1648C449.298 86.8599 444.098 86.5857 438.963 86.3243L426.301 85.6869C420.815 85.4075 415.261 85.1123 409.798 84.7796C393.568 83.7925 379.643 81.9776 367.23 79.2339C353.348 76.165 340.872 71.3313 330.147 64.8693L329.932 64.7389C319.288 58.2932 309.248 49.571 300.092 38.8125C291.818 29.0937 283.688 17.6534 275.234 3.83945C271.661 -1.99329 268.079 -7.97275 264.582 -13.8285L259.347 -22.5957C256.998 -26.5227 254.618 -30.4848 252.251 -34.376C243.766 -48.3248 235.741 -59.976 227.716 -69.9953C219.092 -80.764 209.412 -90.3345 198.941 -98.4454C188.351 -106.603 177.1 -113.727 166.519 -120.212C159.081 -124.763 151.644 -129.29 144.219 -133.805L133.458 -140.345L11.8294 -213.66L26.9723 -222.119L141.134 -153.307L141.878 -152.855C152.624 -146.323 163.402 -139.773 174.181 -133.171L177.532 -131.108C187.082 -125.208 197.071 -118.809 206.597 -111.774C217.266 -103.843 227.062 -94.7565 235.715 -84.7669C244.062 -75.133 252.279 -63.9635 260.836 -50.6214C264.616 -44.7282 268.397 -38.6668 272.108 -32.6764L275.794 -26.7186C278.602 -22.1783 281.409 -17.6358 284.235 -13.1183L285.644 -10.8807C293.839 2.04617 301.63 12.7797 309.414 21.8744C318.484 32.4764 328.402 41.1388 338.912 47.6397L339.986 48.2956C350.905 54.8715 363.571 59.8008 377.633 62.9459C388.432 65.361 400.485 67.1212 414.328 68.2997C416.306 68.4683 418.32 68.6248 420.372 68.7695L429.031 69.3589L442.793 70.2707C450.027 70.7543 457.36 71.2679 464.544 71.869C480.36 73.1938 494.122 75.2713 506.613 78.2211C519.515 81.2725 532.195 85.7994 544.298 91.6765C555.131 96.9636 565.449 102.817 577.459 109.919L582.335 112.813L590.573 117.718L599.483 123.037C603.904 125.679 608.26 128.286 612.496 130.823L723.926 197.993L723.624 215.385ZM723.5 224.391L714.149 229.616L596.114 158.467L591.421 155.659C584.974 151.802 578.522 147.942 572.06 144.087L562.36 138.31C552.12 132.229 540.134 125.269 527.475 119.636C515.457 114.326 502.229 110.422 488.158 108.032C475.524 105.885 461.295 104.436 444.662 103.6C441.545 103.444 438.426 103.296 435.305 103.151L423.009 102.58C415.352 102.217 407.59 101.824 399.985 101.334C383.958 100.3 370.085 98.401 357.574 95.5317C344.149 92.4469 332.004 87.7347 321.457 81.5201L320.359 80.8643C309.709 74.4144 299.637 65.7484 290.421 55.106C282.022 45.4084 273.84 34.0542 265.407 20.3955C259.919 11.5074 254.463 2.28513 249.185 -6.63525C246.957 -10.4024 244.729 -14.1665 242.494 -17.9167C233.985 -32.1896 226.095 -44.0578 218.372 -54.1991C209.74 -65.5258 200.237 -75.3962 190.122 -83.5396C179.745 -91.8329 168.461 -99.0102 157.812 -105.53C150.072 -110.263 142.334 -114.971 134.607 -119.665L124.746 -125.653L5.53538 -197.51L5.75451 -210.264L9.80256 -212.527L132.419 -138.617L133.315 -138.072C144.011 -131.572 154.737 -125.052 165.47 -118.488C176.032 -112.012 187.248 -104.908 197.715 -96.845C208.059 -88.8324 217.627 -79.3716 226.151 -68.7256C234.116 -58.7799 242.094 -47.1996 250.539 -33.3206C252.901 -29.4376 255.276 -25.4829 257.62 -21.5627L264.61 -9.85931C267.551 -4.94342 270.54 0.0284424 273.524 4.90088C282.052 18.8337 290.243 30.3554 298.564 40.1275C307.625 50.7661 317.543 59.4503 328.064 65.9591L329.112 66.599C340.03 73.1762 352.707 78.0892 366.789 81.2013C379.296 83.9676 393.323 85.7963 409.666 86.7926C416.217 87.1904 422.895 87.5348 429.429 87.8638L438.813 88.3354C443.956 88.5967 449.164 88.8716 454.288 89.1762C470.535 90.1447 484.547 91.811 497.124 94.2705C510.524 96.8916 523.423 101.04 535.46 106.599C546.772 111.873 557.46 117.919 570.028 125.373C581.275 132.054 592.49 138.761 603.686 145.457L723.618 217.749L723.5 224.391ZM696.951 239.205L587.373 173.155C576.147 166.427 564.904 159.693 553.628 152.982L551.122 151.494C541.043 145.528 530.271 139.415 518.655 134.435C506.734 129.363 493.402 125.635 479.028 123.357C466.371 121.351 452.524 119.995 435.448 119.089L420.827 118.322C410.911 117.795 400.831 117.218 391.006 116.447C375.23 115.211 361.479 113.111 348.965 110.03C335.324 106.673 322.938 101.676 312.146 95.1779L311.909 95.0346C301.214 88.5577 291.08 79.9991 281.783 69.5942C273.205 59.99 264.905 48.8392 256.409 35.5028C250.267 25.8576 244.203 15.8006 238.308 5.97037L233.282 -2.41428L231.999 -4.54459C224.132 -17.5477 217.166 -28.0988 210.257 -37.473L209.249 -38.8376C200.576 -50.4835 191.177 -60.5281 181.313 -68.6926C171.712 -76.6179 161.485 -83.2843 149.085 -90.857C138.045 -97.5947 127.014 -104.29 116.009 -110.962L5.17739 -177.77L5.47877 -195.189L123.704 -123.927L140.674 -113.615C146.032 -110.356 151.396 -107.088 156.761 -103.81L159.537 -102.104C169.295 -96.0799 179.464 -89.4803 188.865 -81.9629C198.855 -73.9251 208.245 -64.1705 216.773 -52.9708L218.055 -51.2743C225.329 -41.5689 232.775 -30.2931 240.769 -16.8785C242.247 -14.3989 243.722 -11.9125 245.195 -9.42331L247.405 -5.6879C252.704 3.2688 258.183 12.5303 263.697 21.4606C272.195 35.2144 280.439 46.6533 288.901 56.4301C297.992 66.9348 307.925 75.5485 318.439 82.0527L319.543 82.727C330.469 89.3083 343.109 94.2765 357.113 97.4938C369.709 100.387 383.685 102.301 399.841 103.343C407.447 103.834 415.206 104.227 422.858 104.589L430.466 104.943C435.163 105.161 439.859 105.378 444.546 105.612L447.281 105.756C462.656 106.6 475.939 107.998 487.81 110.017C501.722 112.38 514.792 116.237 526.655 121.48C538.354 126.684 549.494 133.046 559.199 138.783L561.33 140.046C567.596 143.771 573.851 147.504 580.098 151.238L595.068 160.191L712.105 230.74L696.951 239.205ZM679.796 248.812L544.984 167.55L541.566 165.558C531.942 159.962 521.253 153.924 509.914 149.174C498.096 144.224 484.74 140.54 470.218 138.222L468.468 137.949C456.745 136.146 443.805 134.801 428.014 133.742L418.479 133.112C406.621 132.32 394.544 131.458 382.829 130.289C367.351 128.743 353.763 126.369 341.288 123.031C327.845 119.435 315.532 114.299 304.69 107.769L304.433 107.614C293.696 101.111 283.484 92.6882 274.074 82.5746C265.281 73.1216 256.816 62.2437 248.195 49.318C241.406 39.134 234.832 28.6247 228.444 18.302L224.633 12.1348C215.628 -2.44553 207.939 -13.9199 200.433 -23.9743C191.683 -35.6952 182.312 -45.7819 172.58 -53.9513C162.099 -62.7521 150.466 -70.0426 140.386 -76.1861C129.344 -82.9149 118.313 -89.6001 107.299 -96.2744L4.84045 -158.033L5.14166 -175.445L114.99 -109.232C125.99 -102.561 137.019 -95.8669 148.057 -89.1307L150.416 -87.6846C161.69 -80.7441 171.155 -74.4761 180.053 -67.1327C189.804 -59.0541 199.092 -49.1267 207.66 -37.6234L208.198 -36.8971L208.736 -36.1661C215.963 -26.343 223.252 -15.2383 231.571 -1.38089L234.643 3.74161C236.659 7.10602 238.703 10.5073 240.757 13.9162C243.682 18.7689 246.637 23.6398 249.625 28.4583C250.365 29.6504 251.111 30.8218 251.854 32.0065L253.77 35.067L254.735 36.5941C263.284 50.0189 271.649 61.2545 280.308 70.9461C289.469 81.2001 299.438 89.6889 309.958 96.196L311.129 96.9109C322.089 103.511 334.661 108.585 348.495 111.99C361.12 115.098 374.976 117.213 390.857 118.459C400.694 119.23 410.777 119.807 420.697 120.335L435.349 121.104C452.315 122 466.097 123.349 478.723 125.35C492.936 127.602 506.112 131.285 517.883 136.293C530.338 141.632 541.873 148.323 552.62 154.719C563.894 161.43 575.137 168.163 586.36 174.89L694.944 240.341L679.796 248.812ZM662.61 258.395L536.268 182.238L532.853 180.236C523.239 174.612 512.561 168.543 501.238 163.781C489.488 158.839 476.182 155.077 461.692 152.6L460.064 152.326C448.88 150.468 436.354 148.95 420.969 147.584L418.697 147.385C413.583 146.944 408.515 146.5 403.49 146.037L400.816 145.788C398.587 145.578 396.369 145.362 394.157 145.141C392.232 144.948 390.313 144.75 388.4 144.546C387.007 144.399 385.615 144.247 384.229 144.092C382.602 143.91 380.98 143.723 379.363 143.53L375.289 143.035C360.099 141.118 346.698 138.431 334.318 134.819C321.075 130.955 308.841 125.672 297.958 119.119C287.073 112.552 276.676 104.224 267.068 94.3402C258.079 85.0941 249.429 74.5275 240.623 62.0371C239.417 60.3259 238.218 58.6022 237.024 56.8712C231.137 48.3353 225.346 39.5185 219.79 30.9511L215.141 23.77C208.917 14.1894 203.364 6.03134 198.123 -1.21729L197.563 -1.99048C195.637 -4.64304 193.753 -7.17291 191.892 -9.60678C183 -21.2364 173.583 -31.242 163.905 -39.3414C153.96 -47.6635 143.452 -54.3461 131.727 -61.6074L4.4984 -138.296L4.80132 -155.707L106.285 -94.5351C117.284 -87.8696 128.313 -81.1869 139.354 -74.4573L141.447 -73.1779C150.959 -67.3467 161.642 -60.51 171.304 -52.3988C180.909 -44.3353 190.173 -34.3624 198.839 -22.7567L199.88 -21.3561C206.998 -11.7184 214.36 -0.682953 222.939 13.2058L226.767 19.4008C233.184 29.7687 239.779 40.3122 246.542 50.4476C255.224 63.4682 263.754 74.4288 272.619 83.9567C281.865 93.8979 291.883 102.228 302.415 108.739L303.667 109.503C314.665 116.129 327.15 121.336 340.775 124.982C353.353 128.349 367.044 130.741 382.631 132.297C395.592 133.591 408.977 134.509 422.026 135.371L426.694 135.677L430.217 135.916C445.663 137 458.351 138.377 469.905 140.216C484.256 142.503 497.46 146.144 509.146 151.039C521.727 156.307 533.554 163.211 543.976 169.293L677.76 249.937L662.61 258.395ZM645.457 267.998L527.554 196.929L522.983 194.237C513.679 188.781 503.42 182.969 492.639 178.305C480.837 173.199 468.015 169.358 453.436 166.561L451.891 166.268C440.515 164.138 428.122 162.35 412.107 160.529L406.411 159.884C394.468 158.523 381.135 156.916 368.284 154.916C353.385 152.596 340.177 149.582 327.904 145.697C314.871 141.575 302.718 136.147 291.782 129.559L291.508 129.393L290.161 128.55C289.328 128.035 288.497 127.522 287.67 126.988C279.956 121.991 272.474 116.187 265.353 109.671C264.993 109.341 264.629 109.024 264.27 108.691L264.027 108.457C262.882 107.388 261.744 106.302 260.618 105.195C251.434 96.169 242.588 85.9287 233.571 73.886L232.068 71.8698C224.82 62.1026 217.759 51.975 209.604 40.0573L207.515 37.0062C198.288 23.566 190.87 13.424 183.611 4.31595C174.4 -7.23914 165.136 -16.7758 155.288 -24.8384C145.215 -33.085 134.275 -39.9865 123.011 -46.9179L4.16244 -118.555L4.4645 -135.972L130.698 -59.8816L134.538 -57.4949C144.662 -51.1714 153.887 -45.1111 162.637 -37.7875C172.203 -29.7802 181.517 -19.8832 190.318 -8.37149C192.818 -5.1026 195.358 -1.66077 197.986 2.01712L198.865 3.25189C203.582 9.90283 208.59 17.3333 214.14 25.8999L217.692 31.3918C223.507 40.3663 229.599 49.6564 235.869 58.7182C236.911 60.2251 237.956 61.7227 239.003 63.2079C247.866 75.7834 256.582 86.4286 265.649 95.7534C274.995 105.366 285.074 113.532 295.628 120.049L296.941 120.85C307.971 127.493 320.36 132.844 333.768 136.756C346.248 140.398 359.75 143.106 375.047 145.036L376.689 145.229C379.126 145.529 381.574 145.816 384.037 146.092C385.396 146.243 386.761 146.392 388.125 146.538C390.076 146.746 392.033 146.948 393.998 147.144L397.259 147.465L401.968 147.914L403.407 148.047C407.162 148.392 410.93 148.731 414.727 149.064L420.795 149.593C436.865 151.019 449.806 152.614 461.362 154.59C475.705 157.04 488.863 160.759 500.476 165.643C513.065 170.937 524.863 177.871 535.263 183.985L660.603 259.537L645.457 267.998ZM611.106 287.174L510.135 226.312L506.678 224.253C504.392 222.894 502.144 221.564 499.918 220.256L497.235 218.683L495.665 217.77L493.002 216.23C487.284 212.942 481.635 209.803 475.833 206.773L475.767 206.741C463.256 201.299 450.382 196.858 437.498 193.54L435.272 192.974C425.063 190.412 413.89 188.051 399.719 185.462L390.294 183.76C388.761 183.482 387.251 183.206 385.762 182.932L382.04 182.241L379.533 181.77L375.953 181.09L374.163 180.745L370.899 180.106L368.954 179.72L365.668 179.059L363.885 178.691L360.371 177.96C359.425 177.76 358.483 177.554 357.54 177.349C356.807 177.191 356.071 177.035 355.34 176.874C341 173.715 328.174 170.045 316.131 165.658C312.96 164.504 309.831 163.282 306.751 161.996C297.609 158.175 288.883 153.776 280.702 148.868L280.423 148.705C270.535 142.696 260.876 135.665 251.728 127.713L250.588 126.714C249.984 126.181 249.376 125.657 248.776 125.116C239.253 116.525 230.018 106.929 220.541 95.7774C212.096 85.8454 203.739 75.3445 195.898 65.3521L192.877 61.5009C183.078 49.0412 175.233 39.6399 167.604 31.2C158.721 21.3795 148.905 12.0868 138.375 3.53683C128.55 -3.35892 118.306 -9.76263 109.119 -15.378L105.398 -17.6456L3.47518 -79.0799L3.77656 -96.4996L113.269 -30.5017L116.614 -28.4511C126.149 -22.5911 136.116 -16.2972 145.729 -9.31821C155.892 -0.607178 165.408 8.98389 174.018 19.1886L175.492 20.9471C182.391 29.2243 189.597 38.54 198.481 50.6691L199.762 52.4212C207.817 63.4586 216.493 75.2079 225.362 86.3292C234.656 97.9858 243.761 107.97 253.198 116.852C263.066 126.142 273.63 134.218 284.601 140.862L284.96 141.079C296.055 147.76 308.262 153.389 321.246 157.811C333.496 161.984 346.601 165.352 361.308 168.106C373.992 170.479 386.754 172.443 401.861 174.624L403.38 174.843C420.433 177.3 433.259 179.549 444.967 182.134C458.066 185.026 471.045 189.058 483.548 194.118C495.084 199.925 506.346 206.532 517.821 213.351L626.252 278.713L611.106 287.174ZM591.905 297.908L576.757 306.369L492.699 255.702C482.445 249.517 472.368 243.472 462.123 237.641L458.659 235.681C446.934 229.834 434.617 224.488 422.009 219.777C410.343 216.006 398.03 212.426 384.421 208.848L376.187 206.697C365.26 203.837 354.101 200.871 343.091 197.682C329.224 193.664 316.764 189.367 305 184.545C293.099 179.665 281.694 174.003 271.075 167.704L269.202 166.582C258.349 160.009 247.71 152.399 237.577 143.957C227.798 135.814 218.186 126.834 208.19 116.505L206.317 114.565C198.539 106.481 191.027 98.3457 182.372 88.907L180.272 86.6161C170.311 75.7469 161.077 66.1649 152.008 57.2938C142.07 48.3827 131.724 40.0125 121.217 32.3867C110.955 25.6856 100.366 19.223 90.2946 13.1425L2.78402 -39.6057L3.08557 -57.0159L98.3608 0.415009C109.614 7.2211 119.215 13.1783 128.664 19.5468C138.866 27.3505 148.929 36.0515 158.54 45.375L160.31 47.2844C168.003 55.6172 176.019 64.727 184.722 75.027L190.585 81.9688C198.494 91.3041 205.559 99.4845 212.863 107.545C222.667 118.36 232.147 127.705 241.849 136.112C246.931 140.516 252.161 144.678 257.5 148.576C258.375 149.214 259.256 149.835 260.138 150.461L261.438 151.388C262.369 152.038 263.306 152.67 264.243 153.303L265.519 154.172L266.445 154.778L267.374 155.381C268.181 155.907 268.987 156.436 269.797 156.95L270.232 157.22C271.343 157.92 272.454 158.617 273.572 159.294L274.024 159.566C285.161 166.267 297.206 172.142 309.824 177.028C321.822 181.677 334.541 185.682 348.704 189.273C361.456 192.508 374.658 195.442 386.334 197.981L389.22 198.608C404.026 201.817 417.167 204.991 429.341 208.297C442.211 212.539 454.673 217.475 466.383 222.968C477.435 228.985 488.208 235.398 498.362 241.52L591.905 297.908ZM557.565 317.083L542.414 325.548L465.205 279.012C457.016 274.083 449.244 269.427 441.425 264.803C429.883 258.4 417.987 252.369 406.036 246.865C394.282 241.93 382.054 237.164 368.644 232.287L355.666 227.724C347.363 224.798 338.941 221.809 330.668 218.781C317.14 213.826 305.044 208.902 293.688 203.728C281.519 198.183 269.764 192.008 258.748 185.375C247.7 178.701 236.776 171.242 226.202 163.097C216.3 155.473 206.311 147.106 195.663 137.519C187.639 130.294 179.574 122.855 171.714 115.585L166.082 110.375C155.623 100.894 145.772 92.3509 135.94 84.2354C125.627 76.2904 114.874 68.6211 103.951 61.4289L100.966 59.5882C90.5127 53.1556 80.0425 46.845 70.7106 41.2236L2.10467 -0.127777L2.40657 -17.5484L78.466 28.2968C86.3516 33.0489 94.1035 37.7386 101.758 42.474L104.673 44.2869L107.579 46.1056C108.886 46.9238 110.199 47.7381 111.501 48.5627C122.081 55.8628 132.593 63.8315 142.717 72.2208C152.262 80.7672 162.057 90.0561 171.829 99.8284L181.006 109.008C187.459 115.455 194.042 121.992 200.621 128.338L201.645 129.319L202.667 130.292C211.281 138.521 219.57 145.877 227.854 152.644L229.097 153.654C229.64 154.093 230.183 154.541 230.726 154.976C240.734 162.995 251.139 170.347 261.758 176.806L263.28 177.725C274.367 184.402 286.263 190.504 298.636 195.862C310.237 200.886 322.571 205.518 336.342 210.022C339.078 210.917 341.831 211.804 344.592 212.684C346.066 213.154 347.546 213.616 349.023 214.08C350.255 214.469 351.486 214.861 352.719 215.246C356.116 216.308 359.509 217.36 362.88 218.4L375.154 222.181C388.428 226.278 401.288 230.639 413.34 235.131C425.532 240.228 437.574 245.906 449.101 251.99C459.065 257.752 468.819 263.593 479.4 269.969L557.565 317.083ZM2.44928 -19.8632L2.75134 -37.2743L87.1134 13.5754C97.7059 19.9609 108.983 26.8018 120.085 34.049C130.492 41.6043 140.785 49.9312 150.644 58.7698C159.649 67.5823 168.859 77.1377 178.8 87.9837L183.352 92.9464C190.703 100.954 198.706 109.603 206.756 117.913C216.806 128.296 226.47 137.323 236.298 145.512C246.507 154.014 257.221 161.68 268.154 168.3L268.664 168.608C279.759 175.291 291.73 181.28 304.241 186.412C316.071 191.264 328.595 195.584 342.533 199.617C355.887 203.482 369.869 207.132 382.203 210.352L385.362 211.182C398.42 214.641 410.234 218.088 421.35 221.681C433.856 226.355 446.108 231.672 457.723 237.463C469.126 243.876 480.286 250.566 491.664 257.428L574.737 307.501L559.593 315.959L476.457 265.854C467.533 260.489 459.495 255.698 451.218 250.899L450.055 250.226C438.484 244.113 426.386 238.408 414.064 233.258C401.941 228.739 389.045 224.366 375.734 220.257L363.087 216.362C359.874 215.37 356.64 214.368 353.403 213.356C347.902 211.636 342.393 209.888 336.954 208.109C323.241 203.623 310.964 199.013 299.42 194.013C287.127 188.692 275.313 182.63 264.299 175.998C253.315 169.393 242.411 161.765 231.969 153.405L231.087 152.692L230.205 151.974C221.783 145.144 213.365 137.715 204.61 129.381L202.875 127.726C202.585 127.449 202.294 127.17 202.003 126.889C195.411 120.526 188.81 113.972 182.338 107.507L173.237 98.4041C163.434 88.6017 153.612 79.2887 144.016 70.6959C133.815 62.2425 123.256 54.2386 112.599 46.8855L111.256 46.0442C101.976 40.1878 92.5888 34.4751 83.0222 28.7022L71.2249 21.5898L2.44928 -19.8632ZM3.43773 -76.7619L104.369 -15.9248L108.081 -13.6629C117.24 -8.06403 127.449 -1.68301 137.177 5.14209C147.569 13.5831 157.31 22.8045 166.127 32.5514L167.138 33.6732C174.226 41.5703 181.603 50.4292 190.685 61.9519L196.023 68.7502C203.382 78.1049 211.161 87.8362 219.023 97.0837C228.563 108.304 237.859 117.964 247.442 126.611C247.963 127.082 248.493 127.536 249.017 128.001C249.761 128.659 250.502 129.323 251.252 129.969L251.538 130.21C259.935 137.418 268.736 143.872 277.783 149.445L279.22 150.321L279.682 150.594C287.933 155.548 296.746 159.991 305.987 163.851C309.097 165.151 312.255 166.385 315.456 167.551C327.555 171.963 340.463 175.654 354.918 178.839L356.013 179.077L359.96 179.924L361.66 180.279C362.864 180.531 364.071 180.783 365.286 181.031L368.525 181.683L371.194 182.212L374.363 182.829L377.603 183.449L380.592 184.015L385.555 184.936L390.608 185.859L399.365 187.441C414.531 190.211 426.244 192.717 437.009 195.489C449.749 198.768 462.512 203.17 474.947 208.574L476.845 209.58C477.636 209.999 478.43 210.415 479.219 210.838L480.321 211.44C481.387 212.016 482.451 212.593 483.511 213.177L484.597 213.784C485.65 214.369 486.702 214.954 487.753 215.547L489.357 216.461C490.231 216.956 491.105 217.451 491.977 217.953L495.011 219.709L497.084 220.917C501.083 223.257 505.083 225.637 509.105 228.042L609.084 288.305L593.939 296.767L501.424 241.004C490.593 234.471 479.036 227.558 467.259 221.151C455.451 215.614 442.904 210.643 429.921 206.363C417.663 203.035 404.49 199.852 389.649 196.635L384.74 195.568C373.204 193.052 361.128 190.347 349.2 187.318C335.137 183.75 322.494 179.769 310.549 175.144C298.015 170.292 286.073 164.468 275.055 157.832C264.079 151.247 253.32 143.386 243.157 134.579C233.493 126.205 224.069 116.916 214.342 106.182C206.053 97.0365 198.048 87.6799 190.476 78.7235L185.241 72.5258C176.22 61.8867 167.942 52.5284 159.967 43.9557C150.233 34.5167 140.109 25.7628 129.831 17.9022C119.561 10.9832 109.216 4.60306 96.8658 -2.8454L3.13617 -59.34L3.43773 -76.7619ZM121.985 -45.1906C133.195 -38.2918 144.081 -31.426 154.036 -23.2703C163.778 -15.2888 172.946 -5.8512 182.062 5.58237L183.026 6.79718C189.945 15.5505 197.085 25.3474 205.88 38.1568L210.471 44.8583C218.159 56.0503 224.945 65.7041 231.984 75.1048C241.062 87.2271 249.975 97.5425 259.229 106.641C261.202 108.582 263.214 110.449 265.245 112.274C265.736 112.715 266.221 113.168 266.715 113.602L267.636 114.389C273.723 119.671 280.045 124.446 286.55 128.651C287.558 129.305 288.576 129.932 289.594 130.56L290.762 131.291C301.834 137.96 314.131 143.453 327.312 147.621C339.68 151.535 352.984 154.575 367.984 156.908C379.749 158.74 391.906 160.242 403.036 161.527L412.973 162.658C429.163 164.516 441.604 166.343 453.068 168.543C467.492 171.307 480.18 175.107 491.856 180.158C504.357 185.566 516.148 192.531 526.544 198.672L643.418 269.122L628.27 277.582L518.841 211.62L515.267 209.501C504.636 203.212 494.773 197.516 484.327 192.262C471.709 187.154 458.609 183.084 445.393 180.167L443.879 179.836C433.235 177.529 421.643 175.486 406.875 173.315L398.082 172.041C386.701 170.381 374.057 168.446 361.671 166.126C347.057 163.388 334.041 160.044 321.881 155.902C309.033 151.525 296.954 145.957 285.982 139.348L285.73 139.196C285.14 138.837 284.552 138.461 283.964 138.094L282.536 137.208C282.299 137.059 282.062 136.91 281.825 136.758C275.826 132.899 269.963 128.609 264.28 123.931L262.043 122.076C261.669 121.759 261.304 121.429 260.931 121.107C258.779 119.251 256.649 117.349 254.557 115.379C245.21 106.584 236.168 96.6688 226.915 85.0654C218.692 74.7537 210.587 63.8353 202.988 53.4433L201.367 51.2249C191.216 37.3134 183.249 27.0305 175.535 17.8819C166.872 7.6058 157.278 -2.06161 146.956 -10.9035C136.09 -18.7966 124.866 -25.7641 114.296 -32.2284L3.81443 -98.822L4.11769 -116.237L121.985 -45.1906ZM3.78159 -211.459L3.56279 -198.686L3.5457 -198.696L3.16363 -176.643L3.1679 -176.64L2.48598 -137.169L2.49025 -137.167L2.1887 -119.745L2.18443 -119.747L1.8015 -97.6946L1.80321 -97.6936L1.46053 -77.9535L1.46395 -77.9514L1.16188 -60.5169L1.15333 -60.522L0.771599 -38.4673L0.779289 -38.4627L0.477228 -21.0515L0.47381 -21.0536L0.0900269 0.998718L80.779 49.6378C87.9391 53.9659 95.4503 58.5321 102.885 63.1262C113.742 70.2763 124.456 77.9159 134.704 85.8112C144.485 93.8848 154.314 102.407 164.741 111.861L167.429 114.349C176.214 122.476 185.297 130.88 194.335 139.018C205.021 148.639 215.049 157.038 224.991 164.695C234.859 172.293 245.053 179.332 255.33 185.642L257.724 187.1C268.806 193.772 280.629 199.983 292.867 205.558C304.269 210.753 316.412 215.697 329.988 220.67C338.27 223.701 346.698 226.693 355.005 229.619L367.977 234.182C381.347 239.043 393.545 243.798 405.238 248.706C417.113 254.177 428.965 260.185 440.441 266.549L443.417 268.313C450.858 272.728 458.321 277.206 466.203 281.953L542.376 327.867L559.544 318.276L559.552 318.281L578.739 307.563L578.736 307.561L595.899 297.973L595.896 297.971L613.087 288.368L613.085 288.366L630.247 278.778L630.246 278.777L645.395 270.313L645.411 270.322L664.598 259.602L664.581 259.592L679.738 251.129L679.749 251.136L698.937 240.406L698.926 240.4L714.096 231.926L714.111 231.935L725.473 225.586L725.631 216.595L725.599 216.575L725.9 199.168L725.92 199.181L726.303 177.126L726.285 177.116L726.588 159.687L726.605 159.698L726.987 137.643L726.982 137.64L727.283 120.225L727.287 120.227L727.668 98.1733L727.657 98.1666L728 78.4396L598.379 0.305847C595.506 -1.28815 592.639 -2.89444 589.773 -4.50476L580.145 -9.92081C575.672 -12.4324 571.132 -14.9655 566.593 -17.4416L563.87 -18.9202C552.65 -24.9753 540.702 -30.9448 528.361 -36.663L524.762 -38.3136C516.031 -42.2957 506.553 -46.4558 494.832 -51.4506L488.475 -54.1556C478.899 -58.2419 467.1 -63.376 455.487 -68.869C442.909 -74.8098 431.515 -80.8812 420.654 -87.4282C410.253 -93.6717 400.041 -100.575 389.442 -108.459L387.994 -109.54C378.036 -117 368.309 -124.758 360.38 -131.182L352.467 -137.608C344.671 -143.924 335.255 -151.458 325.703 -158.757C314.996 -166.939 304.229 -174.671 293.7 -181.74C288.563 -185.188 283.327 -188.601 278.164 -191.943L273.031 -195.258C268.996 -197.863 264.965 -200.467 260.92 -203.112L130.046 -282L95.7065 -262.815L95.7048 -262.816L42.1674 -232.906L42.1734 -232.903L27.0146 -224.435L27.0095 -224.438L3.78159 -211.459Z" fill="url(#paint0_linear_1_57)"/>
<defs>
<linearGradient id="paint0_linear_1_57" x1="3.93855" y1="49.6786" x2="312.961" y2="397.796" gradientUnits="userSpaceOnUse">
<stop stop-color="#5D5DFF" stop-opacity="0.01"/>
<stop offset="0.538482" stop-color="#5D5DFF" stop-opacity="0.32"/>
<stop offset="1" stop-color="#5D5DFF" stop-opacity="0.01"/>
</linearGradient>
</defs>
</svg>
