<svg width="562" height="555" viewBox="0 0 562 555" fill="none" xmlns="http://www.w3.org/2000/svg">
<path fill-rule="evenodd" clip-rule="evenodd" d="M151.149 23.8512C170.114 9.7989 191.773 2.85163 218.093 2.85163C236.898 2.85163 258.085 6.40212 282.348 13.4428C298.153 18.0296 312.527 21.9295 325.493 25.4058C322.386 24.6724 319.197 23.9251 315.919 23.1571C302.174 19.9372 286.594 16.2862 269.127 11.7732C152.882 -18.2617 125.467 41.4339 75.697 149.804L75.6944 149.809C73.1944 155.254 70.6365 160.823 68.0079 166.511C38.6277 230.085 24.5306 266.736 23.8847 303.072C23.2278 339.982 36.0967 375.721 71.3662 434.938C106.645 494.17 131.365 521.532 162.576 535.891C163.536 536.332 164.501 536.761 165.472 537.177C155.773 534.693 146.97 531.525 138.642 527.499C105.993 511.716 80.9461 483.312 46.2228 422.697C11.4996 362.082 -0.383465 326.018 2.37872 289.63C5.10203 253.75 22.3969 218.084 57.7281 156.408C60.903 150.865 63.9941 145.438 67.0155 140.132L67.0194 140.125C96.7118 87.9905 120.164 46.8118 151.149 23.8512ZM185.547 541.188C183.806 540.925 182.095 540.647 180.411 540.354C174.467 538.644 168.841 536.564 163.404 534.062C132.604 519.893 108.121 492.747 73.0759 433.904C38.0207 375.047 25.2285 339.598 25.8775 303.11C26.5174 267.133 40.5556 230.672 69.8153 167.359C72.3223 161.935 74.7642 156.618 77.1537 151.415L77.5037 150.653L77.5059 150.649C102.078 97.1444 121.487 54.8838 148.756 30.457C167.016 14.0991 188.694 6.08483 216.129 6.08483C231.647 6.08483 249.01 8.64974 268.632 13.7203C283.291 17.5074 296.618 20.6867 308.647 23.5145C305.859 22.9542 303 22.3846 300.065 21.8L300.063 21.7995L300.061 21.799L300.007 21.7884L300.006 21.7882C287.224 19.242 272.74 16.3565 256.482 12.7027C148.023 -11.6727 125.929 49.2856 85.8181 159.949L85.8141 159.96L85.7972 160.006L85.7916 160.022L85.788 160.032C83.7807 165.569 81.728 171.231 79.6169 177.017C55.9274 241.923 44.8807 279.201 46.1736 315.504C47.4864 352.38 61.1637 387.438 96.6366 444.852C132.065 502.196 156.183 528.334 185.547 541.188ZM202.092 543.202C199.316 542.937 196.61 542.646 193.97 542.329C191.434 541.452 188.946 540.481 186.493 539.411C157.847 526.925 133.128 500.115 98.3292 443.791C63.0607 386.706 49.4651 351.917 48.1662 315.433C46.8853 279.464 57.8912 242.365 81.4879 177.71C83.4254 172.402 85.313 167.196 87.1621 162.097L87.1675 162.082L87.1691 162.077L87.6871 160.649C107.486 106.023 123.124 62.8778 146.906 37.1643C171.81 10.2362 205.47 3.29497 256.047 14.6638C269.653 17.7213 282.013 20.2409 293.174 22.4735C290.654 22.061 288.071 21.643 285.422 21.2141L285.412 21.2124L285.341 21.2009L285.341 21.2009L285.34 21.2007L285.339 21.2007C273.471 19.2786 260.022 17.1005 244.907 14.243C143.89 -4.85422 126.752 57.1119 95.6395 169.604L95.637 169.613C94.075 175.261 92.4771 181.039 90.8313 186.941C72.44 252.9 64.2272 290.657 67.2984 326.835C70.3786 363.113 85.2581 398.634 120.369 453.529C153.744 505.709 176.524 530.876 202.092 543.202ZM217.868 544.408C214.57 544.211 211.365 543.99 208.247 543.741C208.158 543.705 208.07 543.669 207.982 543.633C181.031 532.56 156.936 506.992 122.045 452.439C86.6735 397.139 72.3741 363.049 69.285 326.665C66.2397 290.794 74.4256 253.205 92.7511 187.485C94.2842 181.984 95.7758 176.593 97.2364 171.314L97.2378 171.309L97.5578 170.152L97.5594 170.146C112.913 114.633 125.04 70.7846 145.554 43.9519C161.625 22.9293 182.782 12.8555 212.142 12.8555C221.98 12.8555 232.743 13.9877 244.539 16.2181C257.135 18.5995 268.569 20.5086 278.898 22.1904C276.628 21.9094 274.304 21.6258 271.922 21.3352L271.919 21.3348C260.9 19.9906 248.41 18.4665 234.351 16.3426C140.446 2.15428 127.915 64.881 105.169 178.746L105.166 178.76L105.119 178.995L105.115 179.013C103.989 184.651 102.837 190.416 101.649 196.305C88.179 263.055 82.5948 301.153 87.2948 337.122C92.0067 373.187 107.519 407.931 142.624 461.042C173.909 508.374 195.411 532.455 217.868 544.408ZM233.357 545.13C229.791 545.004 226.325 544.857 222.954 544.687C199.481 533.728 176.868 509.224 144.283 459.927C108.91 406.411 94.0003 373.056 89.2714 336.858C85.5553 308.425 86.7534 280.201 103.603 196.704C104.809 190.727 105.978 184.876 107.12 179.157C118.345 122.969 127.21 78.5878 144.667 50.7926C162.902 21.7568 190.472 11.7483 234.054 18.3288C245.725 20.0925 256.31 21.4424 265.871 22.6186C263.804 22.451 261.689 22.2833 259.522 22.1115L259.503 22.1101C249.315 21.3027 237.77 20.3877 224.751 18.9489C137.641 9.32855 129.385 72.586 114.398 187.424L114.396 187.438L114.351 187.786C113.613 193.44 112.858 199.22 112.077 205.124C103.168 272.429 100.017 310.739 106.199 346.419C112.401 382.197 128.454 416.134 163.46 467.461C192.91 510.643 213.282 533.566 233.357 545.13ZM287.838 545.789C285.523 545.796 283.174 545.799 280.788 545.799C265.015 545.799 250.805 545.662 237.888 545.277C217.032 534.528 195.703 511.19 165.102 466.323C129.822 414.593 114.39 382.001 108.164 346.073C103.273 317.851 102.907 289.601 114.052 205.39C114.835 199.485 115.589 193.704 116.327 188.05L116.329 188.033L116.373 187.7C123.767 131.036 129.609 86.2806 144.207 57.6687C157.313 31.9803 177.486 20.0117 208.558 20.0117C213.591 20.0117 218.913 20.3252 224.534 20.9471C237.542 22.3834 249.073 23.2982 259.253 24.1057L259.367 24.1148L259.367 24.1148C318.705 28.8187 338.694 30.4033 395.858 114.22C431.747 166.842 450.515 197.921 460.106 232.217C469.84 267.019 470.213 304.483 461.482 370.449C452.869 435.517 442.896 469.318 425.912 491.003C409.001 512.594 384.776 523.256 340.126 537.679C338.47 538.214 336.84 538.737 335.236 539.246C333.639 539.643 332.018 540.043 330.372 540.445C328.561 540.888 326.779 541.32 325.025 541.74C323.25 542.056 321.448 542.373 319.618 542.692C317.618 543.04 315.649 543.379 313.712 543.708C311.773 543.929 309.806 544.15 307.808 544.37C305.592 544.615 303.413 544.853 301.269 545.082C299.172 545.199 297.044 545.314 294.884 545.428C292.497 545.554 290.149 545.675 287.838 545.789ZM314.932 547.506C365.22 546.462 396.889 542.318 423.796 529.31C456.85 513.332 482.132 484.709 517.08 423.702C552.028 362.694 563.981 326.315 561.185 289.475C558.432 253.211 541.059 217.348 505.574 155.403C448.806 56.3029 419.638 48.5026 333.057 25.3511L333.001 25.3363C318.274 21.3976 301.585 16.9342 282.9 11.5118C158.525 -24.5815 125.408 33.5671 65.2888 139.127L65.287 139.131C62.2656 144.436 59.1755 149.862 56.0006 155.403C20.5158 217.348 3.14424 253.21 0.391027 289.475C-2.40605 326.315 9.54782 362.694 44.4953 423.702C79.4438 484.709 104.726 513.332 137.78 529.31C150.332 535.378 163.92 539.517 179.951 542.312C186.836 544.288 194.137 545.772 202.053 546.843C208.475 548.477 215.252 549.603 222.571 550.288C228.551 551.607 234.829 552.402 241.582 552.732C247.167 553.764 253 554.255 259.247 554.255C259.351 554.255 259.455 554.255 259.56 554.255C263.218 554.762 266.952 555 270.774 555C284.198 555 298.712 552.06 314.932 547.506ZM333.069 544.943C375.362 541.409 402.603 535.605 425.479 522.004C455.031 504.436 476.778 474.62 505.718 411.995C534.653 349.387 543.745 312.487 539.264 275.85C534.853 239.781 517.032 204.817 481.22 144.685C441.408 77.8395 416.121 54.3529 377.311 39.8979C430.984 56.8395 458.58 77.3828 503.848 156.408C539.178 218.084 556.473 253.751 559.196 289.63C561.959 326.018 550.076 362.082 515.353 422.697C480.63 483.312 455.582 511.716 422.934 527.499C399.712 538.725 372.793 543.278 333.069 544.943ZM426.655 514.617C406.304 529.338 381.532 536.459 342.768 542.047C379.211 538.459 403.715 532.612 424.466 520.274C453.629 502.937 475.161 473.359 503.912 411.148C532.67 348.919 541.716 312.316 537.285 276.096C532.918 240.387 515.176 205.603 479.51 145.718C433.948 69.2177 407.556 49.9405 357.647 35.643C393.905 48.2163 418.34 70.5016 458.288 135.161C494.311 193.466 512.497 227.514 518.422 263.309C524.438 299.663 518.002 336.942 494.674 400.857C471.336 464.8 452.901 495.631 426.655 514.617ZM351.8 538.641C387.063 531.183 409.43 522.864 427.357 507.181C450.489 486.944 465.827 455.26 483.946 390.275C502.055 325.329 506.034 287.8 498.621 251.802C491.322 216.352 472.848 183.238 436.727 126.767C396.745 64.2568 373.145 43.1391 339.282 32.3175C385.648 44.1701 410.878 62.225 456.596 136.223C492.477 194.299 510.586 228.179 516.455 263.639C522.408 299.61 515.998 336.612 492.803 400.163C469.916 462.87 451.044 494.501 425.492 512.985C407.119 526.274 384.973 533.296 351.8 538.641ZM427.62 499.718C411.274 516.978 389.105 526.467 360.88 534.571C390.417 527.687 410.081 519.633 426.05 505.664C448.561 485.969 464.255 453.465 482.027 389.731C500.041 325.13 504.009 287.858 496.668 252.21C489.434 217.072 471.034 184.114 435.051 127.856C389.339 56.387 365.238 39.482 322.264 29.8852C353.826 39.0837 376.599 59.086 416.483 119.428C452.597 174.067 471.289 206.236 479.833 241.272C488.509 276.849 486.803 314.511 473.54 380.233C460.269 446.001 447.823 478.385 427.62 499.718ZM368.048 530.274C393.518 520.817 413.367 510.264 427.478 492.247C444.929 469.966 454.682 437.027 463.458 370.713C472.229 304.449 471.841 266.765 462.025 231.672C457.194 214.396 449.741 197.103 438.57 177.249C428.032 158.519 414.531 138.052 397.501 113.082C357.773 54.8304 335.809 35.9248 306.383 28.2453C346.202 35.7564 369.213 51.5354 414.824 120.542C450.807 174.983 469.424 207.006 477.898 241.753C486.496 277.008 484.786 314.432 471.588 379.833C458.567 444.349 445.836 477.573 426.178 498.331C412.281 513.005 394.698 521.989 368.048 530.274Z" fill="url(#paint0_linear_1_38)"/>
<defs>
<linearGradient id="paint0_linear_1_38" x1="-3.75437" y1="302.395" x2="285.616" y2="579.14" gradientUnits="userSpaceOnUse">
<stop stop-color="#5D5DFF" stop-opacity="0.01"/>
<stop offset="1" stop-color="#5D5DFF" stop-opacity="0.32"/>
</linearGradient>
</defs>
</svg>
